<svg width="224" height="54" viewBox="0 0 224 54" fill="none" xmlns="http://www.w3.org/2000/svg">
<path fillRule="evenodd" clipRule="evenodd" d="M184.904 52.6199H168.578L153.107 31.9199L150.013 35.7609V52.6189H136.678V0.87291H150.015V24.3459L168.473 0.87291H183.943L163.778 24.8789L184.904 52.6199ZM223.528 52.6199H211.044V48.3519C209.049 49.8794 206.904 51.202 204.644 52.2999C202.508 53.2919 200.169 53.7671 197.815 53.6869C193.548 53.6869 190.24 52.5129 187.893 49.9529C185.546 47.4989 184.372 43.8713 184.372 39.0699V13.6729H196.962V32.9849C196.962 34.9059 196.962 36.6129 197.069 37.8929C197.18 39.0115 197.506 40.0981 198.029 41.0929C198.438 41.9287 199.113 42.6046 199.949 43.0139C201.135 43.4886 202.408 43.7067 203.684 43.6539C204.919 43.6225 206.141 43.4068 207.312 43.0139C208.614 42.579 209.866 42.0068 211.047 41.3069V13.6729H223.531L223.528 52.6199Z" fill="white"/>
<path fillRule="evenodd" clipRule="evenodd" d="M45.8987 39.204C47.9354 35.3922 48.9576 31.1207 48.867 26.7999C48.9577 22.2685 47.8925 17.7886 45.772 13.7829C43.7744 10.1524 40.8705 7.10129 37.343 4.92694C34.9513 3.54199 32.3601 2.53447 29.661 1.93994C26.0791 1.21467 22.4325 0.857132 18.778 0.872922H0V52.6199H18.245C21.8197 52.6448 25.3898 52.3591 28.915 51.7659C31.8417 51.1493 34.6511 50.069 37.237 48.5659C40.8793 46.2396 43.862 43.0157 45.8987 39.204ZM33.079 17.9439C34.4232 20.66 35.0827 23.6636 35 26.6929C35.0553 29.6629 34.4729 32.6102 33.292 35.3359C32.1289 37.6916 30.2653 39.6295 27.957 40.8839C26.6106 41.6021 25.1757 42.1401 23.689 42.4839C21.36 42.844 19.0025 42.9869 16.647 42.9109H13.34V10.5819H16.647C18.8253 10.5141 21.0052 10.6571 23.156 11.0089C24.5962 11.2384 25.9969 11.6693 27.317 12.2889C29.7952 13.5062 31.8155 15.489 33.079 17.9439ZM92.0244 35.1289C92.0629 34.5011 92.082 33.8588 92.082 33.2019H92.078C92.078 32.626 92.0633 32.0604 92.0339 31.5053C92.3982 25.9146 94.3953 21.5083 97.948 18.0519C101.896 14.3179 107.337 12.3969 114.166 12.3969C120.566 12.3969 125.266 13.9969 128.466 17.3049C131.666 20.5049 133.266 25.0929 133.266 31.0689L133.267 35.5489H104.669C104.703 36.894 105.037 38.2145 105.646 39.4142C106.255 40.6139 107.124 41.6627 108.19 42.4839C110.324 44.1909 113.525 44.9379 117.69 44.9379C120.314 44.9445 122.916 44.4745 125.372 43.5509C127.448 42.7655 129.419 41.7263 131.24 40.4569H132.627V50.4869C130.037 51.5367 127.36 52.3578 124.627 52.9409C121.886 53.4732 119.097 53.7235 116.305 53.6879C108.405 53.6879 102.434 51.9809 98.273 48.4599C94.4847 45.2543 92.3724 40.8111 92.0244 35.1289ZM91.973 33.416C91.973 33.9989 91.9902 34.5699 92.0244 35.1289C91.6883 40.6182 89.8738 45.0021 86.427 48.3529C82.693 51.9809 77.464 53.9009 70.743 53.9009C64.6277 53.9009 59.7963 52.3605 56.1719 49.434C61.8247 53.6747 70.0392 53.8148 76.82 48.0329C79.167 46.0049 82.369 41.8439 82.902 39.4969C81.7756 38.2952 78.692 36.2474 76.072 34.5075L76.0717 34.5073C74.9702 33.7758 73.9507 33.0988 73.193 32.5619C73.086 32.5619 72.98 32.4559 72.873 32.3489C72.7424 32.2564 72.5983 32.1847 72.446 32.136L67.325 28.5079C66.2312 29.411 65.3072 30.4623 64.3358 31.5676C63.1267 32.9431 61.8443 34.4022 60.07 35.7629C57.5485 37.603 55.6364 38.2678 53.6665 38.9527L53.6664 38.9528C52.5781 39.3312 51.4721 39.7158 50.236 40.308C49.6124 38.1623 49.297 35.796 49.297 33.2019C49.297 26.6929 51.218 21.6789 54.952 17.9439C58.686 14.3159 64.021 12.3959 70.743 12.3959C77.571 12.3959 82.799 14.3169 86.534 17.9439C89.9285 21.3429 91.7361 25.8898 92.0339 31.5053C91.9933 32.1274 91.973 32.7642 91.973 33.416ZM118.863 22.2119C120.143 23.5989 120.783 25.5199 120.89 28.1869L104.672 28.1859C104.886 25.4126 105.74 23.3856 107.233 22.1049C108.97 20.8585 111.071 20.2209 113.208 20.291C115.769 20.291 117.689 20.9309 118.863 22.2119ZM65.1574 28.2689C65.69 27.5852 66.167 26.973 66.5781 26.4799L82.795 36.0829C83.477 34.8638 83.9123 33.5222 84.076 32.1349C82.6594 31.2111 79.1283 29.3666 75.4433 27.4416L75.443 27.4415L75.4424 27.4412C71.9115 25.5967 68.2394 23.6785 66.1511 22.4259C65.3511 23.3488 64.2313 25.1592 63.1198 26.9563C62.3043 28.275 61.4931 29.5865 60.816 30.5349C58.7139 33.5228 56.0723 36.0918 53.027 38.1099C57.6313 37.9297 62.2335 32.0221 65.1574 28.2689ZM81.2826 28.7077C82.2433 29.2391 82.9985 29.6569 83.436 29.8939C84.077 28.7542 84.4083 27.4665 84.3969 26.1589L74.368 20.9309C73.512 20.5029 72.71 20.0751 71.908 19.6474C71.1098 19.2217 70.3115 18.7959 69.4601 18.3699L65.5121 16.3429C65.1491 16.151 64.7481 16.0418 64.338 16.0229C63.7978 17.0089 63.3432 18.2971 62.8047 19.8229C61.5349 23.4206 59.7989 28.3396 55.375 33.7339L53.882 35.8679C53.9416 35.8679 53.9005 35.9354 53.853 36.0134C53.8159 36.0742 53.775 36.1414 53.775 36.1879C59.003 32.7739 63.164 25.1989 65.618 20.6109C67.1253 20.8762 76.6218 26.1294 81.2826 28.7077Z" fill="white"/>
</svg>
