<svg width="224" height="54" viewBox="0 0 224 54" fill="none" xmlns="http://www.w3.org/2000/svg">
<path fillRule="evenodd" clipRule="evenodd" d="M184.904 51.747H168.578L153.107 31.047L150.013 34.888V51.746H136.678V0H150.015V23.473L168.473 0H183.943L163.778 24.006L184.904 51.747ZM223.528 51.747H211.044V47.479C209.049 49.0065 206.904 50.3291 204.644 51.427C202.508 52.419 200.169 52.8942 197.815 52.814C193.548 52.814 190.24 51.64 187.893 49.08C185.546 46.626 184.372 42.9984 184.372 38.197V12.8H196.962V32.112C196.962 34.033 196.962 35.74 197.069 37.02C197.18 38.1386 197.506 39.2252 198.029 40.22C198.438 41.0558 199.113 41.7317 199.949 42.141C201.135 42.6157 202.408 42.8338 203.684 42.781C204.919 42.7496 206.141 42.5339 207.312 42.141C208.614 41.7061 209.866 41.1339 211.047 40.434V12.8H223.531L223.528 51.747Z" fill="#D53A2C"/>
<path fillRule="evenodd" clipRule="evenodd" d="M45.8987 38.3311C47.9354 34.5193 48.9576 30.2478 48.867 25.927C48.9577 21.3956 47.8925 16.9157 45.772 12.91C43.7744 9.27946 40.8705 6.22838 37.343 4.05403C34.9513 2.66908 32.3601 1.66156 29.661 1.06703C26.0791 0.341761 22.4325 -0.0157779 18.778 1.26911e-05H0V51.747H18.245C21.8197 51.7719 25.3898 51.4862 28.915 50.893C31.8417 50.2763 34.6511 49.196 37.237 47.693C40.8793 45.3667 43.862 42.1428 45.8987 38.3311ZM33.079 17.071C34.4232 19.787 35.0827 22.7907 35 25.82C35.0553 28.79 34.4729 31.7373 33.292 34.463C32.1289 36.8187 30.2653 38.7566 27.957 40.011C26.6106 40.7292 25.1757 41.2672 23.689 41.611C21.36 41.971 19.0025 42.114 16.647 42.038H13.34V9.709H16.647C18.8253 9.64115 21.0052 9.78415 23.156 10.136C24.5962 10.3655 25.9969 10.7964 27.317 11.416C29.7952 12.6333 31.8155 14.6161 33.079 17.071ZM92.0244 34.256C92.0629 33.6282 92.082 32.9859 92.082 32.329H92.078C92.078 31.7531 92.0633 31.1875 92.0339 30.6324C92.3982 25.0417 94.3953 20.6354 97.948 17.179C101.896 13.445 107.337 11.524 114.166 11.524C120.566 11.524 125.266 13.124 128.466 16.432C131.666 19.632 133.266 24.22 133.266 30.196L133.267 34.676H104.669C104.703 36.0211 105.037 37.3416 105.646 38.5413C106.255 39.741 107.124 40.7897 108.19 41.611C110.324 43.318 113.525 44.065 117.69 44.065C120.314 44.0716 122.916 43.6016 125.372 42.678C127.448 41.8926 129.419 40.8534 131.24 39.584H132.627V49.614C130.037 50.6638 127.36 51.4849 124.627 52.068C121.886 52.6002 119.097 52.8506 116.305 52.815C108.405 52.815 102.434 51.108 98.273 47.587C94.4847 44.3813 92.3724 39.9382 92.0244 34.256ZM91.973 32.543C91.973 33.126 91.9902 33.697 92.0244 34.256C91.6883 39.7453 89.8738 44.1292 86.427 47.48C82.693 51.108 77.464 53.028 70.743 53.028C64.6277 53.028 59.7963 51.4876 56.1719 48.5611C61.8247 52.8018 70.0392 52.9419 76.82 47.16C79.167 45.132 82.369 40.971 82.902 38.624C81.7756 37.4223 78.692 35.3745 76.072 33.6346L76.0717 33.6344C74.9702 32.9029 73.9507 32.2259 73.193 31.689C73.086 31.689 72.98 31.583 72.873 31.476C72.7424 31.3835 72.5983 31.3118 72.446 31.2631L67.325 27.635C66.2312 28.5381 65.3072 29.5894 64.3358 30.6947C63.1267 32.0702 61.8443 33.5293 60.07 34.89C57.5485 36.73 55.6364 37.3949 53.6665 38.0798L53.6664 38.0799C52.5781 38.4583 51.4721 38.8429 50.236 39.4351C49.6124 37.2894 49.297 34.9231 49.297 32.329C49.297 25.82 51.218 20.806 54.952 17.071C58.686 13.443 64.021 11.523 70.743 11.523C77.571 11.523 82.799 13.444 86.534 17.071C89.9285 20.47 91.7361 25.0168 92.0339 30.6324C91.9933 31.2545 91.973 31.8913 91.973 32.543ZM118.863 21.339C120.143 22.726 120.783 24.647 120.89 27.314L104.672 27.313C104.886 24.5397 105.74 22.5127 107.233 21.232C108.97 19.9856 111.071 19.348 113.208 19.418C115.769 19.418 117.689 20.058 118.863 21.339ZM65.1574 27.396C65.69 26.7123 66.167 26.1001 66.5781 25.607L82.795 35.21C83.477 33.9909 83.9123 32.6493 84.076 31.262C82.6594 30.3382 79.1283 28.4937 75.4433 26.5687L75.443 26.5686L75.4424 26.5683C71.9115 24.7238 68.2394 22.8056 66.1511 21.553C65.3511 22.4759 64.2313 24.2863 63.1198 26.0834C62.3043 27.4021 61.4931 28.7136 60.816 29.662C58.7139 32.6499 56.0723 35.2189 53.027 37.237C57.6313 37.0568 62.2335 31.1492 65.1574 27.396ZM81.2826 27.8347C82.2433 28.3662 82.9985 28.784 83.436 29.021C84.077 27.8813 84.4083 26.5936 84.3969 25.286L74.368 20.058C73.512 19.63 72.71 19.2022 71.908 18.7745C71.1098 18.3487 70.3115 17.923 69.4601 17.497L65.5121 15.47C65.1491 15.2781 64.7481 15.1689 64.338 15.15C63.7978 16.136 63.3432 17.4242 62.8047 18.9499C61.5349 22.5477 59.7989 27.4667 55.375 32.861L53.882 34.995C53.9416 34.995 53.9005 35.0625 53.853 35.1405C53.8159 35.2013 53.775 35.2685 53.775 35.315C59.003 31.901 63.164 24.326 65.618 19.738C67.1253 20.0033 76.6218 25.2565 81.2826 27.8347Z" fill="#00B0B0"/>
</svg>
